<svg xmlns="http://www.w3.org/2000/svg" xmlns:xlink="http://www.w3.org/1999/xlink" width="2000" zoomAndPan="magnify" viewBox="0 0 1500 1499.999933" height="2000" preserveAspectRatio="xMidYMid meet" version="1.0"><defs><g/><clipPath id="225d2f486d"><path d="M 37.828125 37.828125 L 1462.171875 37.828125 L 1462.171875 1462.171875 L 37.828125 1462.171875 Z M 37.828125 37.828125 " clip-rule="nonzero"/></clipPath><clipPath id="ba75793f74"><path d="M 750 37.828125 C 356.679688 37.828125 37.828125 356.679688 37.828125 750 C 37.828125 1143.320312 356.679688 1462.171875 750 1462.171875 C 1143.320312 1462.171875 1462.171875 1143.320312 1462.171875 750 C 1462.171875 356.679688 1143.320312 37.828125 750 37.828125 Z M 750 37.828125 " clip-rule="nonzero"/></clipPath><clipPath id="a5ad144beb"><path d="M 926 579 L 1133 579 L 1133 747 L 926 747 Z M 926 579 " clip-rule="nonzero"/></clipPath><clipPath id="d347b09c27"><path d="M 995.195312 492.304688 L 1139.867188 591.953125 L 1022.714844 762.039062 L 878.042969 662.394531 Z M 995.195312 492.304688 " clip-rule="nonzero"/></clipPath><clipPath id="3da69390ba"><path d="M 995.195312 492.304688 L 1139.867188 591.953125 L 1022.714844 762.039062 L 878.042969 662.394531 Z M 995.195312 492.304688 " clip-rule="nonzero"/></clipPath><clipPath id="9ca01ce276"><path d="M 995.195312 492.304688 L 1139.867188 591.953125 L 1022.714844 762.039062 L 878.042969 662.394531 Z M 995.195312 492.304688 " clip-rule="nonzero"/></clipPath></defs><g clip-path="url(#225d2f486d)"><g clip-path="url(#ba75793f74)"><path fill="#ffffff" d="M 37.828125 37.828125 L 1462.171875 37.828125 L 1462.171875 1462.171875 L 37.828125 1462.171875 Z M 37.828125 37.828125 " fill-opacity="1" fill-rule="nonzero"/></g></g><g fill="#f59e0b" fill-opacity="1"><g transform="translate(260.414442, 1014.690021)"><g><path d="M 467.84375 -97.3125 L 467.84375 0 L 62.125 0 L 62.125 -523.984375 L 458.109375 -523.984375 L 458.109375 -426.671875 L 182.640625 -426.671875 L 182.640625 -312.890625 L 425.921875 -312.890625 L 425.921875 -218.578125 L 182.640625 -218.578125 L 182.640625 -97.3125 Z M 467.84375 -97.3125 "/></g></g></g><g fill="#000000" fill-opacity="1"><g transform="translate(762.717558, 1014.690021)"><g><path d="M 136.984375 -330.109375 C 149.460938 -353.066406 167.925781 -370.53125 192.375 -382.5 C 216.832031 -394.476562 246.523438 -400.46875 281.453125 -400.46875 L 281.453125 -330.859375 C 277.460938 -331.359375 271.972656 -331.609375 264.984375 -331.609375 C 226.054688 -331.609375 195.488281 -320.003906 173.28125 -296.796875 C 151.082031 -273.585938 139.984375 -240.523438 139.984375 -197.609375 L 139.984375 0 L 68.125 0 L 68.125 -396.734375 L 136.984375 -396.734375 Z M 136.984375 -330.109375 "/></g></g></g><g fill="#f59e0b" fill-opacity="1"><g transform="translate(1069.618754, 1014.690021)"><g><path d="M 85.328125 4.484375 C 71.359375 4.484375 59.382812 -0.378906 49.40625 -10.109375 C 39.425781 -19.835938 34.4375 -32.1875 34.4375 -47.15625 C 34.4375 -61.625 39.425781 -73.722656 49.40625 -83.453125 C 59.382812 -93.191406 71.359375 -98.0625 85.328125 -98.0625 C 99.304688 -98.0625 111.035156 -93.316406 120.515625 -83.828125 C 129.992188 -74.347656 134.734375 -62.125 134.734375 -47.15625 C 134.734375 -32.1875 129.867188 -19.835938 120.140625 -10.109375 C 110.410156 -0.378906 98.804688 4.484375 85.328125 4.484375 Z M 85.328125 4.484375 "/></g></g></g><g clip-path="url(#a5ad144beb)"><g clip-path="url(#d347b09c27)"><g clip-path="url(#3da69390ba)"><g clip-path="url(#9ca01ce276)"><path fill="#000000" d="M 1130.746094 589.636719 C 1127.917969 583.589844 1122.160156 579.894531 1115.714844 579.984375 L 941.160156 583.613281 C 934.929688 583.816406 929.640625 587.828125 927.683594 593.832031 C 925.648438 600.085938 927.761719 606.96875 932.886719 610.917969 L 991.023438 656.398438 C 990.875 669.390625 990.191406 708.007812 989.636719 730.304688 C 989.464844 735.84375 992.09375 740.953125 996.40625 743.921875 C 997.371094 744.589844 998.421875 745.148438 999.546875 745.582031 C 1005.371094 747.820312 1011.792969 746.175781 1015.921875 741.347656 C 1040.265625 712.625 1102.90625 638.101562 1128.609375 607.351562 C 1132.6875 602.535156 1133.523438 595.578125 1130.746094 589.636719 Z M 991.246094 656.582031 C 991.246094 656.578125 991.242188 656.570312 991.238281 656.566406 L 991.25 656.578125 Z M 991.246094 656.582031 " fill-opacity="1" fill-rule="nonzero"/></g></g></g></g></svg>