<svg xmlns="http://www.w3.org/2000/svg" xmlns:xlink="http://www.w3.org/1999/xlink" width="2000" zoomAndPan="magnify" viewBox="0 0 1500 1499.999933" height="2000" preserveAspectRatio="xMidYMid meet" version="1.0"><defs><g/><clipPath id="bd3a718506"><path d="M 642 723 L 697 723 L 697 767 L 642 767 Z M 642 723 " clip-rule="nonzero"/></clipPath><clipPath id="46288bdd54"><path d="M 660.515625 700.59375 L 698.195312 726.546875 L 667.988281 770.402344 L 630.308594 744.449219 Z M 660.515625 700.59375 " clip-rule="nonzero"/></clipPath><clipPath id="2a0f52d6f7"><path d="M 660.515625 700.59375 L 698.195312 726.546875 L 667.988281 770.402344 L 630.308594 744.449219 Z M 660.515625 700.59375 " clip-rule="nonzero"/></clipPath></defs><g fill="#f59e0b" fill-opacity="1"><g transform="translate(179.299223, 857.249906)"><g><path d="M 191.15625 -46.28125 L 191.15625 0 L 21.171875 0 L 21.171875 -211.734375 L 187.234375 -211.734375 L 187.234375 -165.453125 L 80.453125 -165.453125 L 80.453125 -129.765625 L 174.53125 -129.765625 L 174.53125 -85 L 80.453125 -85 L 80.453125 -46.28125 Z M 191.15625 -46.28125 "/></g></g></g><g fill="#f59e0b" fill-opacity="1"><g transform="translate(382.557058, 857.249906)"><g><path d="M 125.21875 -166.65625 C 145.582031 -166.65625 161.960938 -160.601562 174.359375 -148.5 C 186.765625 -136.40625 192.96875 -118.160156 192.96875 -93.765625 L 192.96875 0 L 135.5 0 L 135.5 -84.390625 C 135.5 -106.773438 126.53125 -117.96875 108.59375 -117.96875 C 98.707031 -117.96875 90.789062 -114.738281 84.84375 -108.28125 C 78.894531 -101.832031 75.921875 -92.15625 75.921875 -79.25 L 75.921875 0 L 18.453125 0 L 18.453125 -163.9375 L 73.203125 -163.9375 L 73.203125 -146.09375 C 79.648438 -152.75 87.3125 -157.835938 96.1875 -161.359375 C 105.0625 -164.890625 114.738281 -166.65625 125.21875 -166.65625 Z M 125.21875 -166.65625 "/></g></g></g><g fill="#ffffff" fill-opacity="1"><g transform="translate(583.096039, 857.161946)"><g><path d="M 43.28125 -104.296875 C 47.21875 -111.546875 53.046875 -117.0625 60.765625 -120.84375 C 68.492188 -124.625 77.878906 -126.515625 88.921875 -126.515625 L 88.921875 -104.53125 C 87.660156 -104.6875 85.925781 -104.765625 83.71875 -104.765625 C 71.414062 -104.765625 61.753906 -101.097656 54.734375 -93.765625 C 47.722656 -86.429688 44.21875 -75.988281 44.21875 -62.4375 L 44.21875 0 L 21.515625 0 L 21.515625 -125.34375 L 43.28125 -125.34375 Z M 43.28125 -104.296875 "/></g></g></g><g fill="#ffffff" fill-opacity="1"><g transform="translate(680.056785, 857.161946)"><g><path d="M 134.796875 -61.953125 C 134.796875 -60.222656 134.640625 -57.9375 134.328125 -55.09375 L 32.640625 -55.09375 C 34.054688 -44.0625 38.898438 -35.195312 47.171875 -28.5 C 55.453125 -21.800781 65.742188 -18.453125 78.046875 -18.453125 C 93.015625 -18.453125 105.070312 -23.492188 114.21875 -33.578125 L 126.75 -18.921875 C 121.070312 -12.296875 114.015625 -7.25 105.578125 -3.78125 C 97.148438 -0.3125 87.734375 1.421875 77.328125 1.421875 C 64.085938 1.421875 52.34375 -1.296875 42.09375 -6.734375 C 31.84375 -12.179688 23.921875 -19.789062 18.328125 -29.5625 C 12.734375 -39.332031 9.9375 -50.367188 9.9375 -62.671875 C 9.9375 -74.804688 12.65625 -85.757812 18.09375 -95.53125 C 23.53125 -105.3125 31.015625 -112.921875 40.546875 -118.359375 C 50.085938 -123.796875 60.851562 -126.515625 72.84375 -126.515625 C 84.820312 -126.515625 95.5 -123.796875 104.875 -118.359375 C 114.257812 -112.921875 121.59375 -105.3125 126.875 -95.53125 C 132.15625 -85.757812 134.796875 -74.566406 134.796875 -61.953125 Z M 72.84375 -107.359375 C 61.957031 -107.359375 52.847656 -104.046875 45.515625 -97.421875 C 38.191406 -90.804688 33.898438 -82.140625 32.640625 -71.421875 L 113.046875 -71.421875 C 111.773438 -81.984375 107.472656 -90.613281 100.140625 -97.3125 C 92.816406 -104.007812 83.71875 -107.359375 72.84375 -107.359375 Z M 72.84375 -107.359375 "/></g></g></g><g fill="#ffffff" fill-opacity="1"><g transform="translate(824.788413, 857.161946)"><g><path d="M 67.15625 -126.515625 C 84.5 -126.515625 97.78125 -122.257812 107 -113.75 C 116.226562 -105.238281 120.84375 -92.546875 120.84375 -75.671875 L 120.84375 0 L 99.328125 0 L 99.328125 -16.546875 C 95.535156 -10.710938 90.128906 -6.257812 83.109375 -3.1875 C 76.097656 -0.113281 67.785156 1.421875 58.171875 1.421875 C 44.140625 1.421875 32.90625 -1.96875 24.46875 -8.75 C 16.039062 -15.53125 11.828125 -24.4375 11.828125 -35.46875 C 11.828125 -46.507812 15.847656 -55.378906 23.890625 -62.078125 C 31.929688 -68.773438 44.703125 -72.125 62.203125 -72.125 L 98.140625 -72.125 L 98.140625 -76.625 C 98.140625 -86.394531 95.300781 -93.878906 89.625 -99.078125 C 83.945312 -104.285156 75.59375 -106.890625 64.5625 -106.890625 C 57.15625 -106.890625 49.898438 -105.664062 42.796875 -103.21875 C 35.703125 -100.78125 29.710938 -97.507812 24.828125 -93.40625 L 15.375 -110.4375 C 21.832031 -115.632812 29.554688 -119.613281 38.546875 -122.375 C 47.535156 -125.132812 57.070312 -126.515625 67.15625 -126.515625 Z M 61.953125 -16.078125 C 70.628906 -16.078125 78.117188 -18.007812 84.421875 -21.875 C 90.734375 -25.738281 95.304688 -31.21875 98.140625 -38.3125 L 98.140625 -55.8125 L 63.140625 -55.8125 C 43.910156 -55.8125 34.296875 -49.347656 34.296875 -36.421875 C 34.296875 -30.109375 36.738281 -25.140625 41.625 -21.515625 C 46.507812 -17.890625 53.285156 -16.078125 61.953125 -16.078125 Z M 61.953125 -16.078125 "/></g></g></g><g fill="#ffffff" fill-opacity="1"><g transform="translate(966.209226, 857.161946)"><g><path d="M 76.140625 1.421875 C 63.378906 1.421875 51.988281 -1.335938 41.96875 -6.859375 C 31.957031 -12.378906 24.113281 -19.984375 18.4375 -29.671875 C 12.769531 -39.367188 9.9375 -50.367188 9.9375 -62.671875 C 9.9375 -74.960938 12.769531 -85.957031 18.4375 -95.65625 C 24.113281 -105.351562 31.957031 -112.921875 41.96875 -118.359375 C 51.988281 -123.796875 63.378906 -126.515625 76.140625 -126.515625 C 87.492188 -126.515625 97.625 -124.226562 106.53125 -119.65625 C 115.4375 -115.082031 122.335938 -108.460938 127.234375 -99.796875 L 109.96875 -88.6875 C 106.019531 -94.675781 101.128906 -99.164062 95.296875 -102.15625 C 89.460938 -105.15625 83 -106.65625 75.90625 -106.65625 C 67.707031 -106.65625 60.335938 -104.84375 53.796875 -101.21875 C 47.253906 -97.59375 42.128906 -92.425781 38.421875 -85.71875 C 34.722656 -79.019531 32.875 -71.335938 32.875 -62.671875 C 32.875 -53.835938 34.722656 -46.070312 38.421875 -39.375 C 42.128906 -32.675781 47.253906 -27.515625 53.796875 -23.890625 C 60.335938 -20.265625 67.707031 -18.453125 75.90625 -18.453125 C 83 -18.453125 89.460938 -19.945312 95.296875 -22.9375 C 101.128906 -25.9375 106.019531 -30.429688 109.96875 -36.421875 L 127.234375 -25.546875 C 122.335938 -16.867188 115.4375 -10.203125 106.53125 -5.546875 C 97.625 -0.898438 87.492188 1.421875 76.140625 1.421875 Z M 76.140625 1.421875 "/></g></g></g><g fill="#ffffff" fill-opacity="1"><g transform="translate(1101.244831, 857.161946)"><g><path d="M 88.4375 -126.515625 C 104.363281 -126.515625 117.015625 -121.898438 126.390625 -112.671875 C 135.773438 -103.453125 140.46875 -89.9375 140.46875 -72.125 L 140.46875 0 L 117.765625 0 L 117.765625 -69.53125 C 117.765625 -81.664062 114.847656 -90.804688 109.015625 -96.953125 C 103.179688 -103.109375 94.828125 -106.1875 83.953125 -106.1875 C 71.648438 -106.1875 61.953125 -102.597656 54.859375 -95.421875 C 47.765625 -88.242188 44.21875 -77.957031 44.21875 -64.5625 L 44.21875 0 L 21.515625 0 L 21.515625 -175.46875 L 44.21875 -175.46875 L 44.21875 -107.59375 C 48.945312 -113.59375 55.132812 -118.242188 62.78125 -121.546875 C 70.425781 -124.859375 78.976562 -126.515625 88.4375 -126.515625 Z M 88.4375 -126.515625 "/></g></g></g><g fill="#f59e0b" fill-opacity="1"><g transform="translate(1262.303016, 857.161946)"><g><path d="M 26.953125 1.421875 C 22.546875 1.421875 18.765625 -0.113281 15.609375 -3.1875 C 12.453125 -6.257812 10.875 -10.164062 10.875 -14.90625 C 10.875 -19.46875 12.453125 -23.285156 15.609375 -26.359375 C 18.765625 -29.441406 22.546875 -30.984375 26.953125 -30.984375 C 31.367188 -30.984375 35.070312 -29.484375 38.0625 -26.484375 C 41.0625 -23.492188 42.5625 -19.632812 42.5625 -14.90625 C 42.5625 -10.164062 41.023438 -6.257812 37.953125 -3.1875 C 34.878906 -0.113281 31.210938 1.421875 26.953125 1.421875 Z M 26.953125 1.421875 "/></g></g></g><g clip-path="url(#bd3a718506)"><g clip-path="url(#46288bdd54)"><g clip-path="url(#2a0f52d6f7)"><path fill="#ffffff" d="M 695.742188 725.882812 C 695.003906 724.316406 693.507812 723.355469 691.835938 723.375 L 646.550781 724.203125 C 644.9375 724.253906 643.566406 725.285156 643.0625 726.839844 C 642.539062 728.460938 643.09375 730.242188 644.425781 731.269531 L 659.535156 743.082031 C 659.503906 746.445312 659.351562 756.445312 659.222656 762.21875 C 659.179688 763.652344 659.867188 764.976562 660.988281 765.75 C 661.238281 765.921875 661.511719 766.070312 661.800781 766.179688 C 663.316406 766.765625 664.980469 766.34375 666.046875 765.097656 C 672.34375 757.671875 688.550781 738.414062 695.199219 730.46875 C 696.253906 729.222656 696.464844 727.425781 695.742188 725.882812 Z M 659.59375 743.128906 C 659.59375 743.128906 659.589844 743.128906 659.589844 743.125 Z M 659.59375 743.128906 " fill-opacity="1" fill-rule="nonzero"/></g></g></g></svg>