<svg xmlns="http://www.w3.org/2000/svg" xmlns:xlink="http://www.w3.org/1999/xlink" width="2000" zoomAndPan="magnify" viewBox="0 0 1500 1499.999933" height="2000" preserveAspectRatio="xMidYMid meet" version="1.0"><defs><g/><clipPath id="e0a69ac1b7"><path d="M 117.578125 527 L 1382.078125 527 L 1382.078125 972 L 117.578125 972 Z M 117.578125 527 " clip-rule="nonzero"/></clipPath><clipPath id="57aa3180ef"><path d="M 642 725 L 697 725 L 697 769 L 642 769 Z M 642 725 " clip-rule="nonzero"/></clipPath><clipPath id="11a58d57d4"><path d="M 660.515625 702.617188 L 698.195312 728.566406 L 667.988281 772.421875 L 630.3125 746.46875 Z M 660.515625 702.617188 " clip-rule="nonzero"/></clipPath><clipPath id="09970f991f"><path d="M 660.515625 702.617188 L 698.195312 728.566406 L 667.988281 772.421875 L 630.3125 746.46875 Z M 660.515625 702.617188 " clip-rule="nonzero"/></clipPath><clipPath id="33330abe5f"><path d="M 660.515625 702.617188 L 698.195312 728.566406 L 667.988281 772.421875 L 630.3125 746.46875 Z M 660.515625 702.617188 " clip-rule="nonzero"/></clipPath></defs><g clip-path="url(#e0a69ac1b7)"><path fill="#ffffff" d="M 1382.417969 749.574219 C 1382.417969 872.332031 1283.363281 971.386719 1160.605469 971.386719 L 339.390625 971.386719 C 216.628906 972.234375 117.578125 872.332031 117.578125 749.574219 C 117.578125 626.816406 216.628906 527.761719 339.390625 527.761719 L 1159.757812 527.761719 C 1283.363281 527.761719 1382.417969 626.816406 1382.417969 749.574219 Z M 1382.417969 749.574219 " fill-opacity="1" fill-rule="nonzero"/></g><g fill="#f59e0b" fill-opacity="1"><g transform="translate(223.349693, 848.971652)"><g><path d="M 176.40625 -42.703125 L 176.40625 0 L 19.53125 0 L 19.53125 -195.390625 L 172.78125 -195.390625 L 172.78125 -152.6875 L 74.25 -152.6875 L 74.25 -119.75 L 161.0625 -119.75 L 161.0625 -78.4375 L 74.25 -78.4375 L 74.25 -42.703125 Z M 176.40625 -42.703125 "/></g></g></g><g fill="#f59e0b" fill-opacity="1"><g transform="translate(410.918735, 848.971652)"><g><path d="M 115.5625 -153.796875 C 134.351562 -153.796875 149.46875 -148.210938 160.90625 -137.046875 C 172.351562 -125.878906 178.078125 -109.039062 178.078125 -86.53125 L 178.078125 0 L 125.046875 0 L 125.046875 -77.875 C 125.046875 -98.53125 116.765625 -108.859375 100.203125 -108.859375 C 91.085938 -108.859375 83.785156 -105.878906 78.296875 -99.921875 C 72.804688 -93.972656 70.0625 -85.039062 70.0625 -73.125 L 70.0625 0 L 17.03125 0 L 17.03125 -151.28125 L 67.546875 -151.28125 L 67.546875 -134.8125 C 73.503906 -140.957031 80.578125 -145.65625 88.765625 -148.90625 C 96.953125 -152.164062 105.882812 -153.796875 115.5625 -153.796875 Z M 115.5625 -153.796875 "/></g></g></g><g fill="#000000" fill-opacity="1"><g transform="translate(595.978806, 849.359955)"><g><path d="M 39.9375 -96.234375 C 43.570312 -102.929688 48.953125 -108.023438 56.078125 -111.515625 C 63.210938 -115.003906 71.875 -116.75 82.0625 -116.75 L 82.0625 -96.453125 C 80.894531 -96.597656 79.289062 -96.671875 77.25 -96.671875 C 65.90625 -96.671875 56.992188 -93.285156 50.515625 -86.515625 C 44.046875 -79.753906 40.8125 -70.117188 40.8125 -57.609375 L 40.8125 0 L 19.859375 0 L 19.859375 -115.671875 L 39.9375 -115.671875 Z M 39.9375 -96.234375 "/></g></g></g><g fill="#000000" fill-opacity="1"><g transform="translate(685.455013, 849.359955)"><g><path d="M 124.390625 -57.171875 C 124.390625 -55.578125 124.242188 -53.46875 123.953125 -50.84375 L 30.109375 -50.84375 C 31.421875 -40.664062 35.894531 -32.484375 43.53125 -26.296875 C 51.175781 -20.109375 60.671875 -17.015625 72.015625 -17.015625 C 85.835938 -17.015625 96.96875 -21.671875 105.40625 -30.984375 L 116.96875 -17.453125 C 111.726562 -11.347656 105.21875 -6.691406 97.4375 -3.484375 C 89.65625 -0.285156 80.960938 1.3125 71.359375 1.3125 C 59.140625 1.3125 48.300781 -1.195312 38.84375 -6.21875 C 29.382812 -11.238281 22.070312 -18.257812 16.90625 -27.28125 C 11.75 -36.300781 9.171875 -46.484375 9.171875 -57.828125 C 9.171875 -69.035156 11.675781 -79.148438 16.6875 -88.171875 C 21.707031 -97.191406 28.617188 -104.207031 37.421875 -109.21875 C 46.222656 -114.238281 56.15625 -116.75 67.21875 -116.75 C 78.269531 -116.75 88.125 -114.238281 96.78125 -109.21875 C 105.4375 -104.207031 112.203125 -97.191406 117.078125 -88.171875 C 121.953125 -79.148438 124.390625 -68.816406 124.390625 -57.171875 Z M 67.21875 -99.078125 C 57.175781 -99.078125 48.769531 -96.019531 42 -89.90625 C 35.238281 -83.800781 31.273438 -75.800781 30.109375 -65.90625 L 104.3125 -65.90625 C 103.144531 -75.65625 99.179688 -83.617188 92.421875 -89.796875 C 85.660156 -95.984375 77.257812 -99.078125 67.21875 -99.078125 Z M 67.21875 -99.078125 "/></g></g></g><g fill="#000000" fill-opacity="1"><g transform="translate(819.014612, 849.359955)"><g><path d="M 61.984375 -116.75 C 77.984375 -116.75 90.238281 -112.820312 98.75 -104.96875 C 107.257812 -97.113281 111.515625 -85.398438 111.515625 -69.828125 L 111.515625 0 L 91.65625 0 L 91.65625 -15.28125 C 88.164062 -9.894531 83.179688 -5.78125 76.703125 -2.9375 C 70.234375 -0.101562 62.5625 1.3125 53.6875 1.3125 C 40.738281 1.3125 30.367188 -1.8125 22.578125 -8.0625 C 14.796875 -14.320312 10.90625 -22.546875 10.90625 -32.734375 C 10.90625 -42.921875 14.613281 -51.101562 22.03125 -57.28125 C 29.457031 -63.46875 41.242188 -66.5625 57.390625 -66.5625 L 90.5625 -66.5625 L 90.5625 -70.703125 C 90.5625 -79.722656 87.941406 -86.632812 82.703125 -91.4375 C 77.472656 -96.238281 69.765625 -98.640625 59.578125 -98.640625 C 52.742188 -98.640625 46.050781 -97.507812 39.5 -95.25 C 32.957031 -93 27.429688 -89.984375 22.921875 -86.203125 L 14.1875 -101.921875 C 20.15625 -106.710938 27.285156 -110.378906 35.578125 -112.921875 C 43.867188 -115.472656 52.671875 -116.75 61.984375 -116.75 Z M 57.171875 -14.84375 C 65.179688 -14.84375 72.09375 -16.625 77.90625 -20.1875 C 83.726562 -23.75 87.945312 -28.804688 90.5625 -35.359375 L 90.5625 -51.5 L 58.265625 -51.5 C 40.515625 -51.5 31.640625 -45.535156 31.640625 -33.609375 C 31.640625 -27.785156 33.894531 -23.203125 38.40625 -19.859375 C 42.914062 -16.515625 49.171875 -14.84375 57.171875 -14.84375 Z M 57.171875 -14.84375 "/></g></g></g><g fill="#000000" fill-opacity="1"><g transform="translate(949.518951, 849.359955)"><g><path d="M 70.265625 1.3125 C 58.484375 1.3125 47.972656 -1.234375 38.734375 -6.328125 C 29.492188 -11.421875 22.253906 -18.441406 17.015625 -27.390625 C 11.785156 -36.335938 9.171875 -46.484375 9.171875 -57.828125 C 9.171875 -69.179688 11.785156 -79.332031 17.015625 -88.28125 C 22.253906 -97.226562 29.492188 -104.207031 38.734375 -109.21875 C 47.972656 -114.238281 58.484375 -116.75 70.265625 -116.75 C 80.742188 -116.75 90.09375 -114.640625 98.3125 -110.421875 C 106.53125 -106.203125 112.894531 -100.09375 117.40625 -92.09375 L 101.484375 -81.84375 C 97.835938 -87.363281 93.320312 -91.503906 87.9375 -94.265625 C 82.5625 -97.035156 76.597656 -98.421875 70.046875 -98.421875 C 62.484375 -98.421875 55.679688 -96.75 49.640625 -93.40625 C 43.609375 -90.0625 38.878906 -85.296875 35.453125 -79.109375 C 32.035156 -72.921875 30.328125 -65.828125 30.328125 -57.828125 C 30.328125 -49.679688 32.035156 -42.515625 35.453125 -36.328125 C 38.878906 -30.148438 43.609375 -25.382812 49.640625 -22.03125 C 55.679688 -18.6875 62.484375 -17.015625 70.046875 -17.015625 C 76.597656 -17.015625 82.5625 -18.394531 87.9375 -21.15625 C 93.320312 -23.925781 97.835938 -28.078125 101.484375 -33.609375 L 117.40625 -23.5625 C 112.894531 -15.5625 106.53125 -9.414062 98.3125 -5.125 C 90.09375 -0.832031 80.742188 1.3125 70.265625 1.3125 Z M 70.265625 1.3125 "/></g></g></g><g fill="#000000" fill-opacity="1"><g transform="translate(1074.130955, 849.359955)"><g><path d="M 81.625 -116.75 C 96.3125 -116.75 107.984375 -112.492188 116.640625 -103.984375 C 125.296875 -95.472656 129.625 -83 129.625 -66.5625 L 129.625 0 L 108.6875 0 L 108.6875 -64.15625 C 108.6875 -75.363281 105.992188 -83.800781 100.609375 -89.46875 C 95.222656 -95.144531 87.507812 -97.984375 77.46875 -97.984375 C 66.125 -97.984375 57.175781 -94.671875 50.625 -88.046875 C 44.082031 -81.429688 40.8125 -71.941406 40.8125 -59.578125 L 40.8125 0 L 19.859375 0 L 19.859375 -161.9375 L 40.8125 -161.9375 L 40.8125 -99.296875 C 45.175781 -104.828125 50.882812 -109.117188 57.9375 -112.171875 C 65 -115.222656 72.894531 -116.75 81.625 -116.75 Z M 81.625 -116.75 "/></g></g></g><g fill="#f59e0b" fill-opacity="1"><g transform="translate(1222.7561, 849.359955)"><g><path d="M 24.875 1.3125 C 20.800781 1.3125 17.304688 -0.101562 14.390625 -2.9375 C 11.484375 -5.78125 10.03125 -9.382812 10.03125 -13.75 C 10.03125 -17.96875 11.484375 -21.492188 14.390625 -24.328125 C 17.304688 -27.171875 20.800781 -28.59375 24.875 -28.59375 C 28.945312 -28.59375 32.363281 -27.207031 35.125 -24.4375 C 37.894531 -21.675781 39.28125 -18.113281 39.28125 -13.75 C 39.28125 -9.382812 37.859375 -5.78125 35.015625 -2.9375 C 32.179688 -0.101562 28.800781 1.3125 24.875 1.3125 Z M 24.875 1.3125 "/></g></g></g><g clip-path="url(#57aa3180ef)"><g clip-path="url(#11a58d57d4)"><g clip-path="url(#09970f991f)"><g clip-path="url(#33330abe5f)"><path fill="#000000" d="M 695.824219 727.960938 C 695.085938 726.390625 693.585938 725.429688 691.910156 725.445312 L 646.597656 726.167969 C 644.980469 726.214844 643.613281 727.242188 643.109375 728.796875 C 642.589844 730.410156 643.148438 732.191406 644.484375 733.21875 L 659.632812 745.058594 C 659.609375 748.417969 659.480469 758.40625 659.363281 764.175781 C 659.324219 765.605469 660.015625 766.929688 661.136719 767.703125 C 661.390625 767.878906 661.664062 768.023438 661.953125 768.136719 C 663.46875 768.722656 665.136719 768.304688 666.203125 767.0625 C 672.484375 759.664062 688.65625 740.460938 695.292969 732.539062 C 696.34375 731.296875 696.554688 729.5 695.824219 727.960938 Z M 659.691406 745.105469 C 659.691406 745.105469 659.6875 745.101562 659.6875 745.101562 Z M 659.691406 745.105469 " fill-opacity="1" fill-rule="nonzero"/></g></g></g></g></svg>