<svg xmlns="http://www.w3.org/2000/svg" xmlns:xlink="http://www.w3.org/1999/xlink" width="2000" zoomAndPan="magnify" viewBox="0 0 1500 1499.999933" height="2000" preserveAspectRatio="xMidYMid meet" version="1.0"><defs><clipPath id="423971c0b3"><path d="M 157 687 L 1344 687 L 1344 771 L 157 771 Z M 157 687 " clip-rule="nonzero"/></clipPath><clipPath id="d4a8d81c09"><path d="M 227.410156 460.453125 L 1347.050781 744.054688 L 1272.28125 1039.234375 L 152.640625 755.632812 Z M 227.410156 460.453125 " clip-rule="nonzero"/></clipPath><clipPath id="20a0f20e03"><path d="M 227.410156 460.453125 L 1347.050781 744.054688 L 1272.28125 1039.234375 L 152.640625 755.632812 Z M 227.410156 460.453125 " clip-rule="nonzero"/></clipPath></defs><g clip-path="url(#423971c0b3)"><g clip-path="url(#d4a8d81c09)"><g clip-path="url(#20a0f20e03)"><path fill="#f59e0b" d="M 158.03125 747.722656 C 159.007812 753.882812 163.570312 758.582031 169.261719 760.023438 C 171.1875 760.511719 173.246094 760.625 175.332031 760.292969 C 557.554688 699.832031 944.59375 703.242188 1325.695312 770.433594 C 1333.917969 771.882812 1341.761719 766.390625 1343.214844 758.164062 C 1344.667969 749.9375 1339.128906 742.066406 1330.945312 740.648438 C 1140.507812 707.070312 945.453125 689.183594 751.203125 687.46875 C 556.949219 685.753906 361.609375 700.207031 170.605469 730.421875 C 162.355469 731.726562 156.726562 739.472656 158.03125 747.722656 Z M 158.03125 747.722656 " fill-opacity="1" fill-rule="nonzero"/></g></g></g></svg>